<svg width="69" height="82" viewBox="0 0 69 82" fill="none" xmlns="http://www.w3.org/2000/svg">
<path d="M26.69 47.516C26.69 46.676 26.9 46.046 27.32 45.626C27.74 45.178 28.258 44.954 28.874 44.954C29.49 44.954 30.022 45.15 30.47 45.542V62.174C30.47 65.674 29.938 68.292 28.874 70.028C27.81 71.764 26.116 72.632 23.792 72.632C22.392 72.632 21.3 72.184 20.516 71.288C19.732 70.392 19.34 69.118 19.34 67.466C19.34 64.806 20.054 62.65 21.482 60.998C22.938 59.346 24.674 58.324 26.69 57.932V56.756C24.898 57.456 22.84 57.806 20.516 57.806C16.288 57.806 12.9 56.504 10.352 53.9C7.804 51.268 6.53 47.376 6.53 42.224C6.53 37.044 7.818 33.096 10.394 30.38C12.998 27.636 16.4 26.264 20.6 26.264C23.624 26.264 26.004 26.964 27.74 28.364C29.476 29.764 30.344 31.318 30.344 33.026C30.344 33.726 30.134 34.286 29.714 34.706C29.294 35.126 28.874 35.336 28.454 35.336C27.67 35.336 27.138 35.168 26.858 34.832C27.026 34.412 27.11 33.894 27.11 33.278C27.11 31.766 26.522 30.562 25.346 29.666C24.198 28.77 22.546 28.322 20.39 28.322C17.618 28.322 15.252 29.652 13.292 32.312C11.36 34.944 10.394 38.318 10.394 42.434C10.394 46.55 11.374 49.798 13.334 52.178C15.294 54.53 17.688 55.706 20.516 55.706C22.812 55.706 24.87 55.286 26.69 54.446V47.516ZM21.272 67.592C21.272 68.656 21.496 69.468 21.944 70.028C22.42 70.588 23.092 70.868 23.96 70.868C24.828 70.868 25.5 70.238 25.976 68.978C26.452 67.746 26.69 65.478 26.69 62.174V60.116C25.094 60.48 23.792 61.306 22.784 62.594C21.776 63.91 21.272 65.576 21.272 67.592ZM43.3154 25.508L44.5754 25.466C49.3634 25.494 53.0874 26.404 55.7474 28.196C58.4074 29.988 59.7374 32.536 59.7374 35.84C59.7374 39.144 58.6734 41.734 56.5454 43.61C54.4174 45.458 51.6034 46.382 48.1034 46.382C46.5074 46.382 44.9674 46.088 43.4834 45.5V51.716C43.4834 54.992 43.0774 57.414 42.2654 58.982C41.4534 60.578 40.0674 61.376 38.1074 61.376C37.0434 61.376 36.2174 60.928 35.6294 60.032C35.0414 59.136 34.7474 57.862 34.7474 56.21C34.7474 53.158 36.3434 50.078 39.5354 46.97V28.826C38.3034 29.386 37.3094 30.058 36.5534 30.842C35.7974 31.598 35.4194 32.326 35.4194 33.026C35.4194 33.726 35.5034 34.328 35.6714 34.832C35.5034 35.168 35.1254 35.336 34.5374 35.336C33.9494 35.336 33.4454 35.126 33.0254 34.706C32.6054 34.286 32.3954 33.726 32.3954 33.026C32.3954 31.71 33.0534 30.408 34.3694 29.12C35.6854 27.832 37.4074 26.866 39.5354 26.222V24.626C39.5354 23.786 39.7454 23.156 40.1654 22.736C40.5854 22.288 41.1034 22.064 41.7194 22.064C42.3354 22.064 42.8674 22.26 43.3154 22.652V25.508ZM47.7674 44.198C50.4274 44.198 52.4154 43.498 53.7314 42.098C55.0474 40.67 55.7054 38.64 55.7054 36.008C55.7054 33.348 54.7394 31.276 52.8074 29.792C50.9034 28.28 48.1734 27.524 44.6174 27.524C44.1694 27.524 43.7774 27.566 43.4414 27.65V43.274C44.8694 43.89 46.3114 44.198 47.7674 44.198ZM38.0654 59.738C38.6534 59.738 39.0454 59.052 39.2414 57.68C39.4374 56.308 39.5354 53.396 39.5354 48.944C37.5474 51.38 36.5534 53.788 36.5534 56.168C36.5534 58.548 37.0574 59.738 38.0654 59.738Z" fill="black"/>
</svg>
